<svg version="1" xmlns="http://www.w3.org/2000/svg" width="21.333" height="21.333" viewBox="0 0 16.000000 16.000000"><path d="M7.923.243l-.598 1.446a72.203 72.203 0 0 1-.635 1.493c-.059.142-.112.267-.112.285 0 .017-.053.142-.113.284A76.86 76.86 0 0 0 5.69 5.6c-.367.877-.717 1.712-.776 1.849a1.641 1.641 0 0 0-.113.284c0 .018-.053.148-.113.285-.284.622-3.324 7.946-3.306 7.964.012.012 3.01.012 6.667.006l6.643-.018-.978-2.34c-1.191-2.863-1.494-3.592-1.6-3.835a1.115 1.115 0 0 1-.083-.219 3.31 3.31 0 0 0-.142-.343c-.077-.172-.344-.806-.599-1.41-.249-.6-.486-1.174-.533-1.275-.042-.095-.243-.58-.445-1.067a33.046 33.046 0 0 0-.45-1.066c-.042-.101-.13-.314-.19-.474-.213-.54-1.6-3.829-1.63-3.864-.017-.018-.07.06-.118.166z"/></svg>