<svg version="1" xmlns="http://www.w3.org/2000/svg" width="21.333" height="21.333" viewBox="0 0 16.000000 16.000000"><path d="M0 8v8h16V0H0v8zm11.372-.237l2.359 5.422-1.334.018c-.735.006-1.345.006-1.357-.012a30.231 30.231 0 0 1-.48-1.138l-.456-1.12H5.843l-.444 1.138-.45 1.144H3.62c-1.031 0-1.316-.018-1.292-.077.018-.036 1.06-2.46 2.323-5.375 1.262-2.916 2.305-5.34 2.323-5.38.024-.054.267-.072 1.037-.06l1.001.018 2.359 5.422z"/><path d="M7.271 7.188c-.35.889-.634 1.636-.634 1.66 0 .023.587.04 1.304.04.717 0 1.304-.017 1.304-.047 0-.083-1.275-3.27-1.31-3.27-.018 0-.32.728-.664 1.617z"/></svg>