<?xml version="1.0" standalone="no"?>
<!DOCTYPE svg PUBLIC "-//W3C//DTD SVG 20010904//EN"
 "http://www.w3.org/TR/2001/REC-SVG-20010904/DTD/svg10.dtd">
<svg version="1.0" xmlns="http://www.w3.org/2000/svg"
 width="16.000000pt" height="16.000000pt" viewBox="0 0 16.000000 16.000000"
 preserveAspectRatio="xMidYMid meet">
<metadata>
Created by potrace 1.11, written by Peter Selinger 2001-2013
</metadata>
<g transform="translate(0.000000,16.000000) scale(0.005926,-0.005926)"
fill="#000000" stroke="none">
<path d="M0 1350 l0 -1350 1350 0 1350 0 0 1350 0 1350 -1350 0 -1350 0 0
-1350z m1919 40 l398 -915 -225 -3 c-124 -1 -227 -1 -229 2 -2 2 -39 89 -81
192 l-77 189 -360 0 -359 0 -75 -192 -76 -193 -224 0 c-174 0 -222 3 -218 13
3 6 179 415 392 907 213 492 389 901 392 908 4 9 45 12 175 10 l169 -3 398
-915z"/>
<path d="M1227 1487 c-59 -150 -107 -276 -107 -280 0 -4 99 -7 220 -7 121 0
220 3 220 8 0 14 -215 552 -221 552 -3 0 -54 -123 -112 -273z"/>
</g>
</svg>
