<?xml version="1.0" standalone="no"?>
<!DOCTYPE svg PUBLIC "-//W3C//DTD SVG 20010904//EN"
 "http://www.w3.org/TR/2001/REC-SVG-20010904/DTD/svg10.dtd">
<svg version="1.0" xmlns="http://www.w3.org/2000/svg"
 width="16.000000pt" height="16.000000pt" viewBox="0 0 16.000000 16.000000"
 preserveAspectRatio="xMidYMid meet">
<metadata>
Created by potrace 1.11, written by Peter Selinger 2001-2013
</metadata>
<g transform="translate(0.000000,16.000000) scale(0.005926,-0.005926)"
fill="#000000" stroke="none">
<path d="M1337 2659 c-8 -19 -53 -128 -101 -244 -48 -115 -96 -229 -107 -252
-10 -24 -19 -45 -19 -48 0 -3 -9 -24 -19 -48 -11 -23 -70 -163 -131 -312 -62
-148 -121 -289 -131 -312 -11 -23 -19 -45 -19 -48 0 -3 -9 -25 -19 -48 -48
-105 -561 -1341 -558 -1344 2 -2 508 -2 1125 -1 l1121 3 -165 395 c-201 483
-252 606 -270 647 -8 17 -14 34 -14 37 0 3 -11 29 -24 58 -13 29 -58 136 -101
238 -42 101 -82 198 -90 215 -7 16 -41 98 -75 180 -34 83 -68 164 -76 180 -7
17 -22 53 -32 80 -36 91 -270 646 -275 652 -3 3 -12 -10 -20 -28z"/>
</g>
</svg>
